<svg width="80" height="81" viewBox="0 0 80 81" fill="none" xmlns="http://www.w3.org/2000/svg">
<rect x="0.5" y="1.2395" width="79" height="79" rx="19.4726" stroke="#A259FF"/>
<rect x="8" y="8.7395" width="64" height="64" rx="16.0274" fill="#A259FF"/>
<path d="M50.9875 34.3645C52.3335 33.3884 53.336 32.0112 53.8514 30.4304C54.3667 28.8496 54.3685 27.1463 53.8565 25.5644C53.3445 23.9825 52.3449 22.6032 51.0009 21.6243C49.657 20.6453 48.0377 20.1168 46.375 20.1145H33.625C31.9623 20.1168 30.343 20.6453 28.9991 21.6243C27.6551 22.6032 26.6556 23.9825 26.1435 25.5644C25.6315 27.1463 25.6333 28.8496 26.1487 30.4304C26.664 32.0112 27.6665 33.3884 29.0125 34.3645C28.002 35.0923 27.1789 36.0499 26.6113 37.1583C26.0436 38.2667 25.7476 39.4942 25.7476 40.7395C25.7476 41.9848 26.0436 43.2123 26.6113 44.3207C27.1789 45.4291 28.002 46.3867 29.0125 47.1145C27.9195 47.9044 27.0476 48.9618 26.4804 50.1853C25.9132 51.4088 25.6697 52.7575 25.7733 54.1021C25.8768 55.4467 26.324 56.7422 27.0718 57.8644C27.8197 58.9866 28.8432 59.898 30.0444 60.5112C31.2455 61.1244 32.584 61.4188 33.9315 61.3664C35.2791 61.3139 36.5906 60.9162 37.7404 60.2114C38.8902 59.5067 39.8397 58.5184 40.498 57.3414C41.1563 56.1644 41.5013 54.8381 41.5 53.4895V46.9083C42.3174 47.5979 43.2667 48.1139 44.2901 48.4247C45.3134 48.7355 46.3893 48.8345 47.4522 48.7159C48.5151 48.5972 49.5427 48.2632 50.4723 47.7344C51.4019 47.2056 52.214 46.493 52.8592 45.64C53.5044 44.787 53.969 43.8115 54.2248 42.7731C54.4806 41.7346 54.5222 40.655 54.3471 39.5999C54.172 38.5449 53.7838 37.5365 53.2062 36.6364C52.6285 35.7363 51.8737 34.9633 50.9875 34.3645ZM51.25 27.9895C51.2451 29.2809 50.7299 30.518 49.8167 31.4312C48.9035 32.3444 47.6664 32.8596 46.375 32.8645H41.5V23.1145H46.375C47.6664 23.1194 48.9035 23.6346 49.8167 24.5478C50.7299 25.461 51.2451 26.6981 51.25 27.9895ZM28.75 27.9895C28.7549 26.6981 29.2701 25.461 30.1833 24.5478C31.0965 23.6346 32.3336 23.1194 33.625 23.1145H38.5V32.8645H33.625C32.3336 32.8596 31.0965 32.3444 30.1833 31.4312C29.2701 30.518 28.7549 29.2809 28.75 27.9895ZM28.75 40.7395C28.7549 39.4481 29.2701 38.211 30.1833 37.2978C31.0965 36.3846 32.3336 35.8694 33.625 35.8645H38.5V45.6145H33.625C32.3336 45.6096 31.0965 45.0944 30.1833 44.1812C29.2701 43.268 28.7549 42.0309 28.75 40.7395ZM33.625 58.3645C32.3321 58.3645 31.0921 57.8509 30.1779 56.9366C29.2636 56.0224 28.75 54.7824 28.75 53.4895C28.75 52.1966 29.2636 50.9566 30.1779 50.0424C31.0921 49.1281 32.3321 48.6145 33.625 48.6145H38.5V53.4895C38.4951 54.7809 37.9799 56.018 37.0667 56.9312C36.1535 57.8444 34.9164 58.3596 33.625 58.3645ZM46.375 45.6145C45.0821 45.6145 43.8421 45.1009 42.9279 44.1866C42.0136 43.2724 41.5 42.0324 41.5 40.7395C41.5 39.4466 42.0136 38.2066 42.9279 37.2924C43.8421 36.3781 45.0821 35.8645 46.375 35.8645C47.6679 35.8645 48.9079 36.3781 49.8222 37.2924C50.7364 38.2066 51.25 39.4466 51.25 40.7395C51.25 42.0324 50.7364 43.2724 49.8222 44.1866C48.9079 45.1009 47.6679 45.6145 46.375 45.6145Z" fill="white"/>
</svg>
